<svg xmlns="http://www.w3.org/2000/svg" xmlns:xlink="http://www.w3.org/1999/xlink" x="0px" y="0px" width="16px" height="16px" viewBox="0 0 16 16"><g transform="translate(0, 0)"><path fill="#2b2b2b" d="M7,2c1.1,0,2,0.9,2,2v1c0,1.1-0.9,2-2,2S5,6.1,5,5V4C5,2.9,5.9,2,7,2 M7,0C4.8,0,3,1.8,3,4v1
	c0,2.2,1.8,4,4,4s4-1.8,4-4V4C11,1.8,9.2,0,7,0L7,0z"></path>
<polygon data-color="color-2" fill="#2b2b2b" points="14,10 12,10 12,12 10,12 10,14 12,14 12,16 14,16 14,14 16,14 16,12 14,12 "></polygon>
<path fill="#2b2b2b" d="M8,16H0v-1c0-2.8,2.2-5,5-5h3v2H5c-1.3,0-2.4,0.8-2.8,2H8V16z"></path></g></svg>